<?xml version="1.0" encoding="utf-8"?>
<!-- Generator: Adobe Illustrator 25.0.0, SVG Export Plug-In . SVG Version: 6.00 Build 0)  -->
<svg version="1.1" id="Layer_1" xmlns="http://www.w3.org/2000/svg" xmlns:xlink="http://www.w3.org/1999/xlink" x="0px" y="0px"
	 viewBox="0 0 100 100" style="enable-background:new 0 0 100 100;" xml:space="preserve">
<style type="text/css">
	.st0{clip-path:url(#SVGID_2_);}
	.st1{fill:#D9E021;}
	.st2{fill:#FCEE21;}
</style>
<g>
	<defs>
		<rect id="SVGID_1_" width="100" height="100"/>
	</defs>
	<clipPath id="SVGID_2_">
		<use xlink:href="#SVGID_1_"  style="overflow:visible;"/>
	</clipPath>
	<g class="st0">
		<rect y="0" class="st1" width="50" height="50"/>
		<rect x="50" y="0" class="st1" width="50" height="50"/>
		<rect y="50" class="st1" width="50" height="50"/>
		<rect x="50" y="50" class="st1" width="50" height="50"/>
		<circle class="st2" cx="50" cy="50" r="21"/>
		<g>
			<path class="st1" d="M63,50c0-0.8-0.9-1.5-2-1.5h-7.5c-1.1,0-2-0.9-2-2V39c0-1.1-0.7-2-1.5-2s-1.5,0.9-1.5,2v7.5c0,1.1-0.9,2-2,2
				H39c-1.1,0-2,0.7-2,1.5s0.9,1.5,2,1.5h7.5c1.1,0,2,0.9,2,2V61c0,1.1,0.7,2,1.5,2s1.5-0.9,1.5-2v-7.5c0-1.1,0.9-2,2-2H61
				C62.1,51.5,63,50.8,63,50z"/>
		</g>
		<g>
			<circle class="st2" cx="100" cy="100" r="21"/>
			<g>
				<path class="st1" d="M113,100c0-0.8-0.9-1.5-2-1.5h-7.5c-1.1,0-2-0.9-2-2V89c0-1.1-0.7-2-1.5-2c-0.8,0-1.5,0.9-1.5,2v7.5
					c0,1.1-0.9,2-2,2H89c-1.1,0-2,0.7-2,1.5c0,0.8,0.9,1.5,2,1.5h7.5c1.1,0,2,0.9,2,2v7.5c0,1.1,0.7,2,1.5,2c0.8,0,1.5-0.9,1.5-2
					v-7.5c0-1.1,0.9-2,2-2h7.5C112.1,101.5,113,100.8,113,100z"/>
			</g>
		</g>
		<g>
			<circle class="st2" cx="100" cy="0" r="21"/>
			<g>
				<path class="st1" d="M113,0c0-0.8-0.9-1.5-2-1.5h-7.5c-1.1,0-2-0.9-2-2V-11c0-1.1-0.7-2-1.5-2c-0.8,0-1.5,0.9-1.5,2v7.5
					c0,1.1-0.9,2-2,2H89c-1.1,0-2,0.7-2,1.5s0.9,1.5,2,1.5h7.5c1.1,0,2,0.9,2,2V11c0,1.1,0.7,2,1.5,2c0.8,0,1.5-0.9,1.5-2V3.5
					c0-1.1,0.9-2,2-2h7.5C112.1,1.5,113,0.8,113,0z"/>
			</g>
		</g>
		<g>
			<circle class="st2" cx="0" cy="0" r="21"/>
			<g>
				<path class="st1" d="M13,0c0-0.8-0.9-1.5-2-1.5H3.5c-1.1,0-2-0.9-2-2V-11c0-1.1-0.7-2-1.5-2s-1.5,0.9-1.5,2v7.5c0,1.1-0.9,2-2,2
					H-11c-1.1,0-2,0.7-2,1.5s0.9,1.5,2,1.5h7.5c1.1,0,2,0.9,2,2V11c0,1.1,0.7,2,1.5,2s1.5-0.9,1.5-2V3.5c0-1.1,0.9-2,2-2H11
					C12.1,1.5,13,0.8,13,0z"/>
			</g>
		</g>
		<g>
			<circle class="st2" cx="0" cy="100" r="21"/>
			<g>
				<path class="st1" d="M13,100c0-0.8-0.9-1.5-2-1.5H3.5c-1.1,0-2-0.9-2-2V89c0-1.1-0.7-2-1.5-2s-1.5,0.9-1.5,2v7.5
					c0,1.1-0.9,2-2,2H-11c-1.1,0-2,0.7-2,1.5c0,0.8,0.9,1.5,2,1.5h7.5c1.1,0,2,0.9,2,2v7.5c0,1.1,0.7,2,1.5,2s1.5-0.9,1.5-2v-7.5
					c0-1.1,0.9-2,2-2H11C12.1,101.5,13,100.8,13,100z"/>
			</g>
		</g>
	</g>
	<g class="st0">
		<g>
			<path class="st2" d="M87.6,75.3c0-0.8-0.9-1.5-2-1.5h-7.5c-1.1,0-2-0.9-2-2v-7.5c0-1.1-0.7-2-1.5-2c-0.8,0-1.5,0.9-1.5,2v7.5
				c0,1.1-0.9,2-2,2h-7.5c-1.1,0-2,0.7-2,1.5c0,0.8,0.9,1.5,2,1.5h7.5c1.1,0,2,0.9,2,2v7.5c0,1.1,0.7,2,1.5,2c0.8,0,1.5-0.9,1.5-2
				v-7.5c0-1.1,0.9-2,2-2h7.5C86.7,76.8,87.6,76.1,87.6,75.3z"/>
		</g>
		<g>
			<path class="st2" d="M87.6,24.3c0-0.8-0.9-1.5-2-1.5h-7.5c-1.1,0-2-0.9-2-2v-7.5c0-1.1-0.7-2-1.5-2c-0.8,0-1.5,0.9-1.5,2v7.5
				c0,1.1-0.9,2-2,2h-7.5c-1.1,0-2,0.7-2,1.5c0,0.8,0.9,1.5,2,1.5h7.5c1.1,0,2,0.9,2,2v7.5c0,1.1,0.7,2,1.5,2c0.8,0,1.5-0.9,1.5-2
				v-7.5c0-1.1,0.9-2,2-2h7.5C86.7,25.8,87.6,25.1,87.6,24.3z"/>
		</g>
		<g>
			<path class="st2" d="M37.6,24.3c0-0.8-0.9-1.5-2-1.5h-7.5c-1.1,0-2-0.9-2-2v-7.5c0-1.1-0.7-2-1.5-2c-0.8,0-1.5,0.9-1.5,2v7.5
				c0,1.1-0.9,2-2,2h-7.5c-1.1,0-2,0.7-2,1.5c0,0.8,0.9,1.5,2,1.5h7.5c1.1,0,2,0.9,2,2v7.5c0,1.1,0.7,2,1.5,2c0.8,0,1.5-0.9,1.5-2
				v-7.5c0-1.1,0.9-2,2-2h7.5C36.7,25.8,37.6,25.1,37.6,24.3z"/>
		</g>
		<g>
			<path class="st2" d="M37.6,75.3c0-0.8-0.9-1.5-2-1.5h-7.5c-1.1,0-2-0.9-2-2v-7.5c0-1.1-0.7-2-1.5-2c-0.8,0-1.5,0.9-1.5,2v7.5
				c0,1.1-0.9,2-2,2h-7.5c-1.1,0-2,0.7-2,1.5c0,0.8,0.9,1.5,2,1.5h7.5c1.1,0,2,0.9,2,2v7.5c0,1.1,0.7,2,1.5,2c0.8,0,1.5-0.9,1.5-2
				v-7.5c0-1.1,0.9-2,2-2h7.5C36.7,76.8,37.6,76.1,37.6,75.3z"/>
		</g>
	</g>
</g>
</svg>
