<svg xmlns="http://www.w3.org/2000/svg" viewBox="0 0 169.5 169.5"><defs><style>.cls-1{fill:#718dc8;}</style></defs><g id="Layer_2" data-name="Layer 2"><g id="Layer_1-2" data-name="Layer 1"><polygon class="cls-1" points="84.75 0 96.53 10.34 110.94 4.15 118.95 17.63 134.56 16.19 138.02 31.48 153.31 34.94 151.87 50.55 165.35 58.56 159.16 72.97 169.5 84.75 159.16 96.53 165.35 110.94 151.87 118.95 153.31 134.56 138.02 138.02 134.56 153.31 118.95 151.87 110.94 165.35 96.53 159.16 84.75 169.5 72.97 159.16 58.56 165.35 50.55 151.87 34.94 153.31 31.48 138.02 16.19 134.56 17.63 118.95 4.15 110.94 10.34 96.53 0 84.75 10.34 72.97 4.15 58.56 17.63 50.55 16.19 34.94 31.48 31.48 34.94 16.19 50.55 17.63 58.56 4.15 72.97 10.34 84.75 0"/></g></g></svg>